<svg xmlns="http://www.w3.org/2000/svg"><symbol id="codepen" viewBox="0 0 512 512"><path d="M499.8 178c0-.3-.1-.6-.2-.9-.1-.6-.2-1.2-.4-1.8-.1-.3-.2-.7-.3-1-.2-.5-.3-1-.5-1.5-.1-.3-.3-.7-.5-1-.2-.5-.4-.9-.7-1.4-.2-.3-.4-.7-.6-1-.3-.4-.6-.9-.9-1.3-.2-.3-.5-.6-.7-.9-.3-.4-.7-.8-1-1.1-.3-.3-.5-.6-.8-.8-.4-.3-.8-.7-1.2-1-.3-.2-.6-.5-.9-.7l-.3-.3-223-148.7c-7-4.7-16.2-4.7-23.3 0l-223 148.7-.3.3c-.3.2-.6.5-.9.7-.4.3-.8.7-1.2 1-.3.3-.6.5-.8.8-.4.4-.7.7-1 1.1-.2.3-.5.6-.7.9-.3.4-.6.8-.9 1.3-.2.3-.4.6-.6 1-.3.4-.5.9-.7 1.4-.2.3-.3.7-.5 1-.2.5-.4 1-.5 1.5-.1.3-.2.7-.3 1-.2.6-.3 1.2-.4 1.8-.1.3-.1.6-.2.9-.1.9-.2 1.8-.2 2.7v148.7c0 .9.1 1.8.2 2.7 0 .3.1.6.2.9.1.6.2 1.2.4 1.8.1.3.2.7.3 1 .2.5.3 1 .5 1.5.1.3.3.7.5 1 .2.5.5.9.7 1.4.2.3.4.6.6 1 .3.4.6.9.9 1.3.2.3.5.6.7.9.3.4.7.8 1 1.1.3.3.5.6.8.8.4.3.8.7 1.2 1 .3.2.6.5.9.7l.3.3 223 148.7c3.5 2.3 7.6 3.5 11.6 3.5s8.1-1.2 11.6-3.5l223-148.7.3-.3c.3-.2.6-.5.9-.7.4-.3.8-.7 1.2-1 .3-.3.6-.5.8-.8.4-.4.7-.7 1-1.1.2-.3.5-.6.7-.9.3-.4.6-.8.9-1.3.2-.3.4-.6.6-1 .3-.5.5-.9.7-1.4.2-.3.3-.7.5-1 .2-.5.4-1 .5-1.5.1-.3.2-.7.3-1 .2-.6.3-1.2.4-1.8.1-.3.1-.6.2-.9.1-.9.2-1.8.2-2.7V180.7c.1-.9 0-1.8-.1-2.7zM277 71.2l164.3 109.5-73.4 49.1L277 169V71.2zm-41.9 0V169l-90.9 60.8-73.4-49.1L235.1 71.2zM54 220l52.5 35.1-52.5 35V220zm181.1 218.9L70.8 329.3l73.4-49.1 90.9 60.8v97.9zm21-134.3L181.9 255l74.2-49.6 74.1 49.6-74.1 49.6zM277 438.9v-97.8l90.9-60.8 73.4 49.1L277 438.9zm181.1-148.8L405.6 255l52.4-35.1v70.2z"/></symbol><symbol id="facebook" viewBox="0 0 512 512"><path d="M315 512V284.5h76.6l10.8-88.6H315v-56.3c0-26.3 7.2-43.1 44.3-43.1H406v-79c-8.4-1.2-35.9-3.6-68.2-3.6C269.5 14 224 54.7 224 131.3V196h-76.6v88.6H224V512h91z"/></symbol><symbol id="github" viewBox="0 0 512 512"><path d="M359.3 490.3c16.8 0 14.4 20.4 14.4 20.4h-218s-2.4-20.4 14.4-20.4c15.6 0 19.2-7.2 19.2-14.4L188 416c-85 19.2-103-33.5-103-33.5-14.4-35.9-33.5-44.3-33.5-44.3C22.7 319 52.7 319 52.7 319c31.1 2.4 47.9 31.1 47.9 31.1 26.4 46.7 70.7 33.5 88.6 26.4 2.4-20.4 10.8-33.5 19.2-41.9-68.3-7.2-139-33.6-139-151 0-33.5 12-61.1 31.1-82.6-3.6-7.2-13.2-38.3 3.6-80.3 0 0 25.2-8.4 83.8 31.1 50.3-14.4 103-14.4 153.3 0C399.9 12.3 425 20.7 425 20.7c16.8 41.9 7.2 73.1 3.6 80.3 19.2 21.6 31.1 49.1 31.1 82.6 0 117.4-71.9 143.7-140.1 150.9 12 9.6 21.6 28.7 21.6 57.5l-1.2 83.8c.1 7.3 3.7 14.5 19.3 14.5z"/></symbol><symbol id="instagram" viewBox="0 0 512 512"><path d="M255 48.47c67.27 0 75.23.26 101.8 1.47 24.56 1.12 37.9 5.22 46.78 8.67a78.05 78.05 0 0 1 29 18.84 78.05 78.05 0 0 1 18.84 29c3.45 8.88 7.55 22.22 8.67 46.78 1.21 26.56 1.47 34.53 1.47 101.8s-.26 75.23-1.47 101.8c-1.12 24.56-5.22 37.9-8.67 46.78a83.43 83.43 0 0 1-47.81 47.81c-8.88 3.45-22.22 7.55-46.78 8.67-26.56 1.21-34.53 1.47-101.8 1.47s-75.24-.26-101.8-1.47c-24.56-1.12-37.9-5.22-46.78-8.67a78.05 78.05 0 0 1-29-18.84 78.05 78.05 0 0 1-18.84-29c-3.45-8.88-7.55-22.22-8.67-46.78-1.21-26.56-1.47-34.53-1.47-101.8s.26-75.23 1.47-101.8c1.12-24.56 5.22-37.9 8.67-46.78a78.05 78.05 0 0 1 18.84-29 78.05 78.05 0 0 1 29-18.84c8.88-3.45 22.22-7.55 46.78-8.67 26.56-1.21 34.53-1.47 101.8-1.47m0-45.39c-68.42 0-77 .29-103.87 1.52S106 10.08 90 16.3a123.49 123.49 0 0 0-44.64 29.06A123.49 123.49 0 0 0 16.3 90c-6.22 16-10.48 34.32-11.7 61.13S3.08 186.58 3.08 255s.29 77 1.52 103.87S10.08 404 16.3 420a123.49 123.49 0 0 0 29.06 44.62A123.49 123.49 0 0 0 90 493.69c16 6.23 34.34 10.49 61.15 11.71s35.45 1.52 103.87 1.52 77-.29 103.87-1.52S404 499.92 420 493.69A128.82 128.82 0 0 0 493.69 420c6.23-16 10.49-34.34 11.71-61.15s1.52-35.45 1.52-103.87-.29-77-1.52-103.87S499.92 106 493.69 90a123.49 123.49 0 0 0-29.06-44.62A123.49 123.49 0 0 0 420 16.3c-16-6.22-34.32-10.48-61.13-11.7S323.42 3.08 255 3.08z"/><path d="M255 125.64A129.36 129.36 0 1 0 384.36 255 129.36 129.36 0 0 0 255 125.64zM255 339a84 84 0 1 1 84-84 84 84 0 0 1-84 84z"/><circle cx="389.48" cy="120.52" r="30.23"/></symbol><symbol id="twitter" viewBox="0 0 512 512"><path d="M503.5 105.7c-17.1 8.6-37.1 14.3-57.1 17.1 21.4-12.8 37.1-32.8 45.7-57.1-20 11.4-41.4 20-64.2 24.3-39.7-40.6-104.7-41.4-145.3-1.7-25.1 24.5-36 60.2-28.8 94.5-79.9-4.3-157-41.4-207-105.6C18.4 122.6 32.1 182.5 77.6 211c.2.1.4.3.6.4-15.7 0-31.4-2.9-45.7-10 1.4 47.1 34.3 88.5 79.9 98.5-14.3 4.3-30 4.3-45.7 1.4 14.3 41.4 52.8 69.9 95.6 71.4-41.4 34.3-97.1 50-149.9 41.4 130.5 87.1 306.9 51.9 393.9-78.6a283.51 283.51 0 0 0 47.1-176.9c20.1-14.4 37.3-31.5 50.1-52.9"/></symbol></svg>