<svg xmlns="http://www.w3.org/2000/svg" display="none" height="0" width="0">
  <symbol id="twitter" viewBox="0 0 512 512">
    <path fill="currentColor" d="m456 133c-14 7-31 11-47 13 17-10 30-27 37-46-15 10-34 16-52 20-61-62-157-7-141 75-68-3-129-35-169-85-22 37-11 86 26 109-13 0-26-4-37-9 0 39 28 72 65 80-12 3-25 4-37 2 10 33 41 57 77 57-42 30-77 38-122 34 170 111 378-32 359-208 16-11 30-25 41-42z"/>
  </symbol>
  <symbol id="instagram" viewBox="0 0 512 512">
    <path fill="currentColor" d="m256 152c-52-1-100 43-103 95a103 103 0 0 0 200 43 104 104 0 0 0 -97-138zm0 169c-40 2-74-40-65-79 7-40 54-65 91-48 36 14 52 63 31 95a66 66 0 0 1 -57 32zm131-171c1 20-27 31-41 16-14-14-3-41 17-40 13 0 24 11 24 24z"/>
    <path fill="currentColor" d="m424 89c-25-27-64-35-100-33-54 0-109-1-164 1-43 2-85 31-98 73-10 32-5 66-6 98 0 42-1 84 1 126 3 46 37 87 81 98 30 7 62 3 92 4 42 0 83 1 124-1 44-3 85-33 96-76 9-32 5-64 6-97 0-41 1-83-1-125-2-25-13-50-31-68zm-3 250c1 35-23 70-57 77-28 5-56 2-83 3-40-1-80 1-120-1-32-2-61-26-66-58-4-28-1-57-2-86 1-38-1-76 1-114 2-32 26-60 58-65 29-4 59-1 88-2 38 0 76-1 113 1 33 2 62 29 66 62 3 30 1 61 2 92z"/>
  </symbol>
  <symbol id="facebook" viewBox="0 0 512 512">
    <path fill="currentColor" d="m287 456v-182h61l9-72h-70v-45c0-21 6-35 35-35h38v-63c-7-1-29-3-55-3-54 0-91 33-91 94v52h-62v72h62v182z"/>
  </symbol>
</svg>
